<?xml version="1.0" standalone="no"?>
<!DOCTYPE svg PUBLIC "-//W3C//DTD SVG 20010904//EN"
 "http://www.w3.org/TR/2001/REC-SVG-20010904/DTD/svg10.dtd">
<svg version="1.0" xmlns="http://www.w3.org/2000/svg"
 width="147" height="101" viewBox="0 0 512.000000 512.000000"
 preserveAspectRatio="xMidYMid meet">

<g transform="translate(0.000000,512.000000) scale(0.100000,-0.100000)"
fill="#000000" stroke="none">
<path d="M2425 4369 c-298 -44 -536 -248 -627 -539 -33 -108 -33 -311 0 -420
102 -327 391 -540 734 -541 132 0 213 18 333 76 160 77 268 185 350 347 61
121 78 209 73 361 -4 98 -10 138 -32 202 -39 114 -98 209 -185 296 -123 123
-268 194 -444 218 -88 12 -116 12 -202 0z m295 -189 c180 -61 323 -204 381
-382 31 -95 34 -254 5 -338 -73 -216 -221 -356 -434 -411 -193 -49 -397 4
-548 145 -79 73 -124 143 -161 248 -34 97 -36 249 -4 348 63 198 250 369 446
409 81 16 240 7 315 -19z"/>
<path d="M3980 3845 c-202 -46 -378 -207 -441 -405 -25 -76 -30 -238 -10 -310
27 -98 81 -190 154 -265 82 -82 137 -117 238 -151 151 -51 303 -39 455 35 398
197 435 753 67 1005 -132 90 -312 125 -463 91z m251 -171 c76 -23 128 -56 188
-119 199 -210 131 -543 -136 -667 -174 -82 -399 -26 -515 127 -63 82 -82 144
-83 260 0 92 3 105 32 168 52 110 151 196 268 233 57 18 182 17 246 -2z"/>
<path d="M891 3804 c-150 -32 -286 -124 -370 -249 -158 -236 -126 -542 76
-741 104 -103 274 -174 418 -174 249 0 489 178 566 420 32 98 30 250 -4 348
-36 103 -81 174 -159 247 -142 135 -338 190 -527 149z m299 -191 c120 -57 194
-142 232 -267 60 -196 -38 -409 -229 -499 -129 -60 -302 -47 -417 33 -61 41
-125 114 -151 173 -104 228 10 492 251 577 47 16 78 20 154 17 82 -2 104 -7
160 -34z"/>
<path d="M2440 2763 c-306 -30 -599 -157 -813 -353 l-68 -63 -97 46 c-118 56
-199 81 -317 97 -469 66 -938 -224 -1092 -675 -41 -120 -53 -221 -53 -435 0
-197 0 -198 28 -251 20 -39 41 -62 77 -84 l48 -30 507 -3 508 -3 6 -40 c9 -58
38 -110 86 -153 85 -77 -22 -71 1300 -71 1322 0 1215 -6 1300 71 57 51 82 105
88 186 l5 67 501 3 c356 2 509 7 527 15 44 19 101 75 120 118 16 34 19 68 19
236 0 213 -12 314 -53 434 -104 305 -346 541 -652 638 -277 87 -600 48 -839
-100 l-49 -31 -62 53 c-283 240 -668 364 -1025 328z m326 -178 c500 -86 892
-463 995 -957 17 -84 22 -148 25 -351 5 -269 0 -313 -43 -346 -26 -21 -31 -21
-1183 -21 -1145 0 -1158 0 -1183 20 -43 34 -47 66 -43 340 3 214 7 272 25 358
103 490 492 868 986 956 108 19 312 20 421 1z m1553 -216 c298 -76 534 -313
611 -613 17 -67 20 -111 20 -286 0 -147 -3 -209 -12 -218 -9 -9 -133 -12 -499
-12 l-486 0 -6 173 c-9 250 -47 403 -153 608 -26 51 -71 125 -100 165 l-53 73
33 21 c176 108 431 143 645 89z m-3097 -63 c85 -21 218 -78 218 -92 0 -3 -19
-32 -41 -66 -59 -86 -144 -268 -174 -373 -39 -134 -55 -262 -55 -437 l0 -158
-489 0 c-417 0 -490 2 -501 15 -9 11 -11 73 -8 242 4 204 7 236 27 298 98 298
334 514 636 580 103 23 278 19 387 -9z"/>
</g>
</svg>
