<?xml version="1.0" standalone="no"?>
<!DOCTYPE svg PUBLIC "-//W3C//DTD SVG 20010904//EN"
 "http://www.w3.org/TR/2001/REC-SVG-20010904/DTD/svg10.dtd">
<svg version="1.0" xmlns="http://www.w3.org/2000/svg"
 width="147" height="101" viewBox="0 0 512.000000 512.000000"
 preserveAspectRatio="xMidYMid meet">

<g transform="translate(0.000000,512.000000) scale(0.100000,-0.100000)"
fill="#000000" stroke="none">
<path d="M1915 5025 c-443 -97 -680 -579 -486 -990 21 -44 57 -104 80 -132 52
-66 992 -925 1026 -937 16 -6 34 -6 50 0 29 11 933 831 1004 911 167 188 217
493 118 728 -55 133 -169 265 -287 335 -250 149 -547 127 -787 -57 l-73 -55
-72 55 c-173 132 -383 184 -573 142z m305 -175 c75 -25 136 -63 238 -149 95
-80 109 -80 204 0 161 136 244 172 398 173 85 1 118 -4 173 -22 317 -110 458
-473 301 -773 -20 -38 -59 -92 -88 -121 -74 -77 -876 -803 -886 -803 -10 0
-821 735 -891 808 -89 91 -149 241 -149 373 0 80 32 202 72 273 69 122 219
233 353 260 74 15 200 7 275 -19z"/>
<path d="M761 4069 c-76 -22 -148 -89 -181 -168 l-12 -30 -42 21 c-61 33 -192
31 -261 -2 -63 -31 -124 -91 -155 -155 l-25 -50 -3 -732 -3 -732 247 -453 246
-453 334 -335 c246 -248 338 -347 353 -380 19 -41 21 -66 21 -258 0 -213 0
-213 25 -237 l24 -25 511 0 511 0 24 25 25 24 0 533 c0 577 -2 604 -55 693
-13 22 -113 137 -224 255 l-201 215 0 406 c0 477 -1 481 -84 565 -77 77 -184
103 -278 70 l-38 -14 0 252 c0 306 -5 333 -84 412 -77 77 -184 103 -278 70
l-38 -14 0 132 c0 174 -14 221 -84 292 -75 74 -175 101 -275 73z m163 -188
l31 -31 3 -677 c2 -653 2 -677 -17 -697 -10 -12 -27 -38 -38 -59 l-19 -38 -82
104 -82 105 2 630 3 630 25 27 c33 36 57 46 104 41 27 -3 49 -14 70 -35z
m-436 -148 c14 -10 35 -32 46 -47 20 -27 21 -41 26 -594 l5 -567 444 -565
c244 -311 445 -566 446 -567 3 -6 120 89 120 97 0 5 -120 162 -267 349 l-268
341 0 85 c0 78 2 88 25 110 17 18 35 25 61 25 32 0 45 -7 83 -48 280 -292 982
-1053 1001 -1085 l25 -42 3 -492 3 -493 -400 0 -399 0 -4 183 -3 182 -33 70
c-30 64 -62 99 -367 405 l-334 335 -231 422 -230 423 0 684 c0 461 3 694 11
713 14 37 47 72 84 89 40 19 119 12 153 -13z m836 -332 l31 -31 3 -472 3 -471
-59 55 c-56 51 -111 78 -161 78 l-22 0 3 404 3 404 25 27 c33 36 57 46 104 41
27 -3 49 -14 70 -35z m400 -720 l31 -31 3 -327 3 -326 -84 89 c-46 49 -100
108 -121 131 l-37 42 3 195 c3 192 3 195 28 221 33 36 57 46 104 41 27 -3 49
-14 70 -35z"/>
<path d="M4186 4064 c-33 -11 -65 -32 -102 -68 -70 -71 -84 -118 -84 -292 l0
-132 -37 14 c-95 33 -202 7 -279 -70 -79 -79 -84 -106 -84 -412 l0 -252 -37
14 c-95 33 -202 7 -279 -70 -83 -84 -84 -88 -84 -565 l0 -406 -201 -215 c-111
-118 -211 -233 -224 -255 -53 -89 -55 -116 -55 -693 l0 -533 25 -24 24 -25
511 0 511 0 24 25 c25 24 25 24 25 237 0 192 2 217 21 258 15 33 107 132 353
380 l334 335 246 453 247 453 -3 732 -3 732 -27 51 c-40 76 -70 107 -140 145
-58 31 -70 34 -148 33 -67 0 -93 -4 -126 -21 l-41 -22 -20 42 c-65 133 -208
196 -347 151z m178 -183 l31 -31 3 -631 2 -631 -82 -105 -82 -104 -19 38 c-11
21 -28 47 -38 59 -19 20 -19 44 -17 697 l3 675 25 27 c33 36 57 46 104 41 27
-3 49 -14 70 -35z m444 -148 c14 -10 35 -32 46 -47 21 -27 21 -38 24 -727 l2
-699 -230 -422 -231 -423 -334 -335 c-305 -306 -337 -341 -367 -405 l-33 -70
-3 -183 -4 -182 -399 0 -400 0 3 493 3 492 25 42 c19 32 721 793 1001 1085 38
41 51 48 83 48 26 0 44 -7 61 -25 23 -22 25 -32 25 -110 l0 -86 -270 -342
c-148 -188 -270 -344 -269 -347 0 -3 27 -26 61 -52 l60 -48 22 27 c11 15 213
272 449 572 l427 544 0 548 c0 364 4 557 11 576 14 37 47 72 84 89 40 19 119
12 153 -13z m-844 -332 l31 -31 3 -405 3 -405 -22 0 c-50 0 -105 -27 -161 -78
l-59 -55 3 471 3 470 25 27 c33 36 57 46 104 41 27 -3 49 -14 70 -35z m-400
-720 l31 -31 3 -196 3 -195 -37 -42 c-21 -23 -75 -82 -121 -131 l-84 -89 3
325 3 326 25 27 c33 36 57 46 104 41 27 -3 49 -14 70 -35z"/>
</g>
</svg>
